<svg width="77" height="77" viewBox="0 0 77 77" fill="none" xmlns="http://www.w3.org/2000/svg">
<mask id="path-1-outside-1_2051_964" maskUnits="userSpaceOnUse" x="-0.733398" y="-0.733276" width="78" height="78" fill="black">
<rect fill="white" x="-0.733398" y="-0.733276" width="78" height="78"/>
<path d="M3.77483 33.1104C5.02918 24.9111 9.1932 17.389 15.5001 11.9302C21.4947 6.73851 29.068 3.74312 36.9734 3.40902L35.1174 1.38454C34.8691 1.11398 34.885 0.690629 35.1588 0.442386C35.4294 0.194102 35.8528 0.210016 36.1011 0.483766L38.9504 3.59365C38.9567 3.6032 38.9663 3.61275 38.9727 3.6223V3.62548C39.0172 3.68278 39.0554 3.74326 39.0777 3.80692C39.1032 3.87059 39.1191 3.94061 39.1223 4.01064V4.05521C39.1223 4.1507 39.1 4.23982 39.065 4.32258C39.03 4.39898 38.9822 4.47219 38.9154 4.53267C38.9026 4.5454 38.8867 4.55813 38.8708 4.57086C38.8167 4.61224 38.7626 4.64407 38.7021 4.66954C38.6352 4.695 38.5652 4.71092 38.492 4.7141H38.4538C21.9315 4.7141 7.58606 17.0106 5.08731 33.3146C5.03637 33.6456 4.75303 33.8811 4.42831 33.8811C4.39329 33.8811 4.36146 33.878 4.32644 33.8748C3.96988 33.8143 3.71753 33.4764 3.77483 33.1104ZM33.3084 71.8267C17.0021 69.3311 4.70392 54.9881 4.70392 38.4674C4.70392 38.4514 4.70392 38.4323 4.70074 38.4164C4.69437 38.3528 4.68164 38.2923 4.65935 38.2318C4.63388 38.1618 4.59249 38.0949 4.54156 38.0345V38.0313C4.53838 38.0281 4.53838 38.0281 4.53838 38.0249L4.53519 38.0217C4.46834 37.9517 4.39193 37.8976 4.30916 37.8626C4.22957 37.8276 4.1468 37.8085 4.05767 37.8085C4.03857 37.8085 4.01946 37.8085 4.00036 37.8116H3.99718C3.93032 37.8148 3.86347 37.8307 3.80298 37.8562C3.7425 37.8785 3.68201 37.9135 3.62789 37.9581C3.61516 37.9676 3.60561 37.9772 3.59287 37.9867L0.48255 40.8356C0.211949 41.0839 0.192846 41.5072 0.441163 41.7777C0.689482 42.0483 1.11289 42.0674 1.38345 41.8191L3.40821 39.9634C3.74249 47.867 6.73817 55.4395 11.9305 61.4337C17.3903 67.7395 24.9133 71.9032 33.1137 73.1573C33.1488 73.1637 33.1806 73.1637 33.2156 73.1637C33.5403 73.1637 33.8237 72.9281 33.8746 72.5971C33.9192 72.2215 33.6713 71.8808 33.3084 71.8267ZM72.5868 43.0575C72.2238 43.0034 71.8832 43.2517 71.8259 43.6146C69.33 59.9186 54.985 72.215 38.4619 72.215C38.446 72.2182 38.4301 72.215 38.4142 72.2182H38.411C38.3409 72.2246 38.2773 72.2373 38.2136 72.2628C38.1499 72.2883 38.0894 72.3233 38.0353 72.3678C38.0257 72.3774 38.0162 72.3838 38.0067 72.3933H38.0035C37.9334 72.457 37.8825 72.5334 37.8475 72.6161C37.8156 72.6925 37.7965 72.7753 37.7934 72.8612C37.7934 72.8835 37.7934 72.909 37.7965 72.9344C37.8029 72.9981 37.8156 73.0586 37.8379 73.119C37.8602 73.1795 37.8952 73.24 37.9366 73.2941C37.9462 73.3068 37.9589 73.3196 37.9716 73.3323L40.8209 76.4422C40.9482 76.5886 41.1297 76.6618 41.308 76.6618C41.4704 76.6618 41.6295 76.6045 41.7601 76.4868C42.0307 76.2385 42.0498 75.8151 41.8014 75.5446L39.9455 73.5201C47.8502 73.1859 55.4237 70.1906 61.4188 64.999C67.7254 59.54 71.8898 52.018 73.144 43.8188C73.2013 43.4527 72.9497 43.1148 72.5868 43.0575ZM76.4867 35.1634C76.2383 34.8929 75.8149 34.8738 75.5444 35.1221L73.5196 36.9778C73.1853 29.0742 70.1896 21.5017 64.9973 15.5075C59.5375 9.20173 52.0145 5.03797 43.8141 3.78387C43.4512 3.72976 43.1105 3.97804 43.0532 4.34091C42.9959 4.70379 43.2474 5.04438 43.6103 5.10167C59.9166 7.59723 72.2148 21.9402 72.2148 38.4634V38.5048C72.218 38.5749 72.2339 38.6449 72.2594 38.7085C72.2849 38.7722 72.3199 38.8327 72.3644 38.89V38.8932C72.374 38.9027 72.3804 38.9123 72.3899 38.9218C72.4536 38.9918 72.53 39.0428 72.6128 39.0778C72.6892 39.1096 72.7719 39.1319 72.8611 39.1319H72.8802C72.8993 39.1319 72.9152 39.1319 72.9343 39.1287H72.9375C73.0012 39.1224 73.0616 39.1096 73.119 39.0873H73.1221C73.1858 39.0619 73.2463 39.0269 73.3036 38.9823C73.3131 38.9727 73.3259 38.9632 73.3354 38.9536L76.4458 36.1048C76.7164 35.8565 76.735 35.4372 76.4867 35.1634ZM38.4593 62.0576C37.2049 62.0576 35.9411 61.9557 34.6995 61.7583C34.5467 61.7329 34.4066 61.6565 34.3047 61.5419C33.9641 61.1536 33.7412 60.6952 33.6648 60.2114L33.4738 59.0049C31.3472 58.4925 29.3257 57.6553 27.4569 56.5126L26.4701 57.2288C26.0753 57.5152 25.5946 57.6839 25.0789 57.719C24.9229 57.7285 24.7701 57.684 24.6459 57.5948C22.5989 56.1147 20.8066 54.3226 19.323 52.2727C19.2307 52.1486 19.1893 51.9958 19.1989 51.8398C19.2307 51.3273 19.3995 50.8435 19.6892 50.4488L20.4055 49.4621C19.2658 47.5936 18.4285 45.5756 17.9127 43.446L16.7093 43.2551C16.2254 43.1787 15.7638 42.9558 15.3786 42.6152C15.2608 42.5134 15.1844 42.3733 15.1621 42.2205C14.9647 40.9792 14.8629 39.7155 14.8629 38.4613C14.8629 37.2071 14.9647 35.9402 15.1621 34.702C15.1876 34.5492 15.264 34.4092 15.3786 34.3073C15.767 33.9667 16.2255 33.7439 16.7093 33.6675L17.9127 33.4765C18.4253 31.3502 19.2625 29.329 20.4055 27.4605L19.6892 26.4737C19.4026 26.079 19.2339 25.5984 19.1989 25.0827C19.1893 24.9268 19.2339 24.774 19.323 24.6498C20.8034 22.6031 22.5957 20.8111 24.6459 19.3277C24.7701 19.2354 24.9229 19.194 25.0789 19.2036C25.5914 19.2354 26.0722 19.4041 26.4701 19.6938L27.4569 20.41C29.3257 19.2673 31.344 18.4333 33.4738 17.9176L33.6648 16.7144C33.7412 16.2305 33.9641 15.769 34.3047 15.3838C34.4066 15.2661 34.5467 15.1897 34.6995 15.1674C37.1795 14.7695 39.7422 14.7695 42.2222 15.1674C42.3751 15.1929 42.5151 15.2693 42.617 15.3838C42.9576 15.7722 43.1805 16.2306 43.2569 16.7144L43.4479 17.9176C45.5746 18.4301 47.596 19.2672 49.4648 20.41L50.4517 19.6938C50.8465 19.4073 51.3271 19.2386 51.8429 19.2036C51.9989 19.194 52.1517 19.2386 52.2758 19.3277C54.3228 20.8079 56.1152 22.5999 57.5987 24.6498C57.691 24.774 57.7324 24.93 57.7228 25.0827C57.691 25.5952 57.5223 26.0791 57.2326 26.4737L56.5163 27.4605C57.6591 29.329 58.4933 31.347 59.009 33.4765L60.2124 33.6675C60.6963 33.7439 61.158 33.9635 61.5431 34.3073C61.6609 34.4092 61.7373 34.5492 61.7596 34.702C61.957 35.9434 62.0589 37.2071 62.0589 38.4613C62.0589 39.7155 61.957 40.9791 61.7596 42.2205C61.7341 42.3733 61.6577 42.5134 61.5431 42.6152C61.1547 42.9558 60.6963 43.1787 60.2124 43.2551L59.0026 43.4492C58.4901 45.5756 57.6529 47.5968 56.5099 49.4653L57.2262 50.452C57.5127 50.8467 57.6815 51.3273 57.7165 51.843C57.726 51.999 57.6815 52.1518 57.5923 52.2759C56.112 54.3226 54.3197 56.1147 52.2695 57.598C52.1453 57.6903 51.9925 57.7317 51.8365 57.7221C51.324 57.6903 50.8432 57.5216 50.4453 57.2319L49.4585 56.5157C47.5897 57.6553 45.5714 58.4925 43.4416 59.0081L43.2505 60.2114C43.1741 60.6952 42.9513 61.1568 42.6106 61.5419C42.5088 61.6597 42.3687 61.7361 42.2159 61.7583C40.9807 61.9557 39.7136 62.0576 38.4593 62.0576ZM35.1706 60.4819C37.345 60.8034 39.5735 60.8034 41.751 60.4819C41.8497 60.3323 41.9102 60.17 41.9389 60.0013L42.1999 58.3525C42.2445 58.0819 42.4482 57.8623 42.7156 57.805C45.0014 57.3052 47.1599 56.4108 49.1305 55.1471C49.3629 55.0007 49.659 55.007 49.8818 55.1694L51.2316 56.1497C51.3685 56.2484 51.5277 56.3184 51.6996 56.3566C53.476 55.042 55.0392 53.4759 56.3539 51.703C56.3157 51.5279 56.2457 51.3719 56.147 51.2351L55.1665 49.8855C55.0041 49.6626 54.9945 49.3634 55.1442 49.1343C56.4081 47.1639 57.3026 45.0058 57.8024 42.7203C57.8597 42.4529 58.0794 42.246 58.35 42.2046L59.999 41.9436C60.1678 41.9182 60.327 41.8545 60.4798 41.7558C60.6421 40.6672 60.7217 39.5627 60.7217 38.4676C60.7217 37.3694 60.6389 36.2649 60.4798 35.1795C60.3301 35.0808 60.1678 35.0203 59.999 34.9916L58.35 34.7306C58.0794 34.6861 57.8597 34.4824 57.8024 34.215C57.3026 31.9295 56.4081 29.7714 55.1442 27.801C54.9945 27.5687 55.0041 27.2726 55.1665 27.0498L56.147 25.7002C56.2457 25.5633 56.3157 25.4042 56.3539 25.2323C55.0391 23.4561 53.4728 21.8932 51.6996 20.5786C51.5245 20.6168 51.3685 20.6869 51.2316 20.7855L49.8818 21.7659C49.659 21.9283 49.3597 21.9346 49.1305 21.7882C47.1599 20.5245 45.0014 19.6301 42.7156 19.1303C42.4482 19.073 42.2413 18.8534 42.1999 18.5828L41.9389 16.934C41.9102 16.7653 41.8497 16.6061 41.751 16.4534C39.5766 16.1319 37.345 16.1319 35.1706 16.4534C35.072 16.603 35.0115 16.7653 34.9828 16.934L34.7218 18.5828C34.6772 18.8534 34.4734 19.073 34.206 19.1303C31.9202 19.6301 29.7618 20.5245 27.7912 21.7882C27.5588 21.9346 27.2627 21.9283 27.0399 21.7659L25.6901 20.7855C25.5532 20.6869 25.394 20.6168 25.2221 20.5786C23.4457 21.8933 21.8825 23.4594 20.5678 25.2323C20.606 25.4074 20.676 25.5633 20.7747 25.7002L21.7552 27.0498C21.9176 27.2726 21.9271 27.5718 21.7775 27.801C20.5136 29.7714 19.6191 31.9295 19.1192 34.215C19.0619 34.4824 18.8423 34.6893 18.5717 34.7306L16.9226 34.9916C16.7539 35.0203 16.5947 35.0808 16.4419 35.1795C16.2796 36.268 16.2 37.3726 16.2 38.4676C16.2 39.5627 16.2827 40.6703 16.4419 41.7558C16.5915 41.8545 16.7539 41.915 16.9226 41.9436L18.5685 42.2046C18.8391 42.2492 19.0588 42.4529 19.1161 42.7203C19.6159 45.0058 20.5104 47.1639 21.7743 49.1343C21.9208 49.3666 21.9144 49.6626 21.752 49.8855L20.7715 51.2351C20.6728 51.3719 20.6028 51.5311 20.5646 51.703C21.8794 53.4792 23.4457 55.0421 25.2189 56.3566C25.394 56.3185 25.55 56.2484 25.6869 56.1497L27.0367 55.1694C27.2595 55.007 27.5588 55.0007 27.788 55.1471C29.7586 56.4108 31.9171 57.3052 34.2029 57.805C34.4703 57.8623 34.6772 58.0819 34.7186 58.3525L34.9796 60.0013C35.0083 60.17 35.0719 60.3291 35.1706 60.4819ZM38.4593 52.5146C30.7105 52.5146 24.4072 46.2121 24.4072 38.4646C24.4072 30.7171 30.7107 24.4145 38.4593 24.4145C46.2079 24.4145 52.5113 30.7171 52.5113 38.4646C52.5113 46.2121 46.2079 52.5146 38.4593 52.5146ZM51.1772 38.4646C51.1772 31.4522 45.4723 25.7485 38.4593 25.7485C31.4463 25.7485 25.7414 31.4526 25.7414 38.4646C25.7414 45.4766 31.4463 51.1807 38.4593 51.1807C45.4723 51.1807 51.1772 45.4766 51.1772 38.4646Z"/>
</mask>
<path d="M3.77483 33.1104C5.02918 24.9111 9.1932 17.389 15.5001 11.9302C21.4947 6.73851 29.068 3.74312 36.9734 3.40902L35.1174 1.38454C34.8691 1.11398 34.885 0.690629 35.1588 0.442386C35.4294 0.194102 35.8528 0.210016 36.1011 0.483766L38.9504 3.59365C38.9567 3.6032 38.9663 3.61275 38.9727 3.6223V3.62548C39.0172 3.68278 39.0554 3.74326 39.0777 3.80692C39.1032 3.87059 39.1191 3.94061 39.1223 4.01064V4.05521C39.1223 4.1507 39.1 4.23982 39.065 4.32258C39.03 4.39898 38.9822 4.47219 38.9154 4.53267C38.9026 4.5454 38.8867 4.55813 38.8708 4.57086C38.8167 4.61224 38.7626 4.64407 38.7021 4.66954C38.6352 4.695 38.5652 4.71092 38.492 4.7141H38.4538C21.9315 4.7141 7.58606 17.0106 5.08731 33.3146C5.03637 33.6456 4.75303 33.8811 4.42831 33.8811C4.39329 33.8811 4.36146 33.878 4.32644 33.8748C3.96988 33.8143 3.71753 33.4764 3.77483 33.1104ZM33.3084 71.8267C17.0021 69.3311 4.70392 54.9881 4.70392 38.4674C4.70392 38.4514 4.70392 38.4323 4.70074 38.4164C4.69437 38.3528 4.68164 38.2923 4.65935 38.2318C4.63388 38.1618 4.59249 38.0949 4.54156 38.0345V38.0313C4.53838 38.0281 4.53838 38.0281 4.53838 38.0249L4.53519 38.0217C4.46834 37.9517 4.39193 37.8976 4.30916 37.8626C4.22957 37.8276 4.1468 37.8085 4.05767 37.8085C4.03857 37.8085 4.01946 37.8085 4.00036 37.8116H3.99718C3.93032 37.8148 3.86347 37.8307 3.80298 37.8562C3.7425 37.8785 3.68201 37.9135 3.62789 37.9581C3.61516 37.9676 3.60561 37.9772 3.59287 37.9867L0.48255 40.8356C0.211949 41.0839 0.192846 41.5072 0.441163 41.7777C0.689482 42.0483 1.11289 42.0674 1.38345 41.8191L3.40821 39.9634C3.74249 47.867 6.73817 55.4395 11.9305 61.4337C17.3903 67.7395 24.9133 71.9032 33.1137 73.1573C33.1488 73.1637 33.1806 73.1637 33.2156 73.1637C33.5403 73.1637 33.8237 72.9281 33.8746 72.5971C33.9192 72.2215 33.6713 71.8808 33.3084 71.8267ZM72.5868 43.0575C72.2238 43.0034 71.8832 43.2517 71.8259 43.6146C69.33 59.9186 54.985 72.215 38.4619 72.215C38.446 72.2182 38.4301 72.215 38.4142 72.2182H38.411C38.3409 72.2246 38.2773 72.2373 38.2136 72.2628C38.1499 72.2883 38.0894 72.3233 38.0353 72.3678C38.0257 72.3774 38.0162 72.3838 38.0067 72.3933H38.0035C37.9334 72.457 37.8825 72.5334 37.8475 72.6161C37.8156 72.6925 37.7965 72.7753 37.7934 72.8612C37.7934 72.8835 37.7934 72.909 37.7965 72.9344C37.8029 72.9981 37.8156 73.0586 37.8379 73.119C37.8602 73.1795 37.8952 73.24 37.9366 73.2941C37.9462 73.3068 37.9589 73.3196 37.9716 73.3323L40.8209 76.4422C40.9482 76.5886 41.1297 76.6618 41.308 76.6618C41.4704 76.6618 41.6295 76.6045 41.7601 76.4868C42.0307 76.2385 42.0498 75.8151 41.8014 75.5446L39.9455 73.5201C47.8502 73.1859 55.4237 70.1906 61.4188 64.999C67.7254 59.54 71.8898 52.018 73.144 43.8188C73.2013 43.4527 72.9497 43.1148 72.5868 43.0575ZM76.4867 35.1634C76.2383 34.8929 75.8149 34.8738 75.5444 35.1221L73.5196 36.9778C73.1853 29.0742 70.1896 21.5017 64.9973 15.5075C59.5375 9.20173 52.0145 5.03797 43.8141 3.78387C43.4512 3.72976 43.1105 3.97804 43.0532 4.34091C42.9959 4.70379 43.2474 5.04438 43.6103 5.10167C59.9166 7.59723 72.2148 21.9402 72.2148 38.4634V38.5048C72.218 38.5749 72.2339 38.6449 72.2594 38.7085C72.2849 38.7722 72.3199 38.8327 72.3644 38.89V38.8932C72.374 38.9027 72.3804 38.9123 72.3899 38.9218C72.4536 38.9918 72.53 39.0428 72.6128 39.0778C72.6892 39.1096 72.7719 39.1319 72.8611 39.1319H72.8802C72.8993 39.1319 72.9152 39.1319 72.9343 39.1287H72.9375C73.0012 39.1224 73.0616 39.1096 73.119 39.0873H73.1221C73.1858 39.0619 73.2463 39.0269 73.3036 38.9823C73.3131 38.9727 73.3259 38.9632 73.3354 38.9536L76.4458 36.1048C76.7164 35.8565 76.735 35.4372 76.4867 35.1634ZM38.4593 62.0576C37.2049 62.0576 35.9411 61.9557 34.6995 61.7583C34.5467 61.7329 34.4066 61.6565 34.3047 61.5419C33.9641 61.1536 33.7412 60.6952 33.6648 60.2114L33.4738 59.0049C31.3472 58.4925 29.3257 57.6553 27.4569 56.5126L26.4701 57.2288C26.0753 57.5152 25.5946 57.6839 25.0789 57.719C24.9229 57.7285 24.7701 57.684 24.6459 57.5948C22.5989 56.1147 20.8066 54.3226 19.323 52.2727C19.2307 52.1486 19.1893 51.9958 19.1989 51.8398C19.2307 51.3273 19.3995 50.8435 19.6892 50.4488L20.4055 49.4621C19.2658 47.5936 18.4285 45.5756 17.9127 43.446L16.7093 43.2551C16.2254 43.1787 15.7638 42.9558 15.3786 42.6152C15.2608 42.5134 15.1844 42.3733 15.1621 42.2205C14.9647 40.9792 14.8629 39.7155 14.8629 38.4613C14.8629 37.2071 14.9647 35.9402 15.1621 34.702C15.1876 34.5492 15.264 34.4092 15.3786 34.3073C15.767 33.9667 16.2255 33.7439 16.7093 33.6675L17.9127 33.4765C18.4253 31.3502 19.2625 29.329 20.4055 27.4605L19.6892 26.4737C19.4026 26.079 19.2339 25.5984 19.1989 25.0827C19.1893 24.9268 19.2339 24.774 19.323 24.6498C20.8034 22.6031 22.5957 20.8111 24.6459 19.3277C24.7701 19.2354 24.9229 19.194 25.0789 19.2036C25.5914 19.2354 26.0722 19.4041 26.4701 19.6938L27.4569 20.41C29.3257 19.2673 31.344 18.4333 33.4738 17.9176L33.6648 16.7144C33.7412 16.2305 33.9641 15.769 34.3047 15.3838C34.4066 15.2661 34.5467 15.1897 34.6995 15.1674C37.1795 14.7695 39.7422 14.7695 42.2222 15.1674C42.3751 15.1929 42.5151 15.2693 42.617 15.3838C42.9576 15.7722 43.1805 16.2306 43.2569 16.7144L43.4479 17.9176C45.5746 18.4301 47.596 19.2672 49.4648 20.41L50.4517 19.6938C50.8465 19.4073 51.3271 19.2386 51.8429 19.2036C51.9989 19.194 52.1517 19.2386 52.2758 19.3277C54.3228 20.8079 56.1152 22.5999 57.5987 24.6498C57.691 24.774 57.7324 24.93 57.7228 25.0827C57.691 25.5952 57.5223 26.0791 57.2326 26.4737L56.5163 27.4605C57.6591 29.329 58.4933 31.347 59.009 33.4765L60.2124 33.6675C60.6963 33.7439 61.158 33.9635 61.5431 34.3073C61.6609 34.4092 61.7373 34.5492 61.7596 34.702C61.957 35.9434 62.0589 37.2071 62.0589 38.4613C62.0589 39.7155 61.957 40.9791 61.7596 42.2205C61.7341 42.3733 61.6577 42.5134 61.5431 42.6152C61.1547 42.9558 60.6963 43.1787 60.2124 43.2551L59.0026 43.4492C58.4901 45.5756 57.6529 47.5968 56.5099 49.4653L57.2262 50.452C57.5127 50.8467 57.6815 51.3273 57.7165 51.843C57.726 51.999 57.6815 52.1518 57.5923 52.2759C56.112 54.3226 54.3197 56.1147 52.2695 57.598C52.1453 57.6903 51.9925 57.7317 51.8365 57.7221C51.324 57.6903 50.8432 57.5216 50.4453 57.2319L49.4585 56.5157C47.5897 57.6553 45.5714 58.4925 43.4416 59.0081L43.2505 60.2114C43.1741 60.6952 42.9513 61.1568 42.6106 61.5419C42.5088 61.6597 42.3687 61.7361 42.2159 61.7583C40.9807 61.9557 39.7136 62.0576 38.4593 62.0576ZM35.1706 60.4819C37.345 60.8034 39.5735 60.8034 41.751 60.4819C41.8497 60.3323 41.9102 60.17 41.9389 60.0013L42.1999 58.3525C42.2445 58.0819 42.4482 57.8623 42.7156 57.805C45.0014 57.3052 47.1599 56.4108 49.1305 55.1471C49.3629 55.0007 49.659 55.007 49.8818 55.1694L51.2316 56.1497C51.3685 56.2484 51.5277 56.3184 51.6996 56.3566C53.476 55.042 55.0392 53.4759 56.3539 51.703C56.3157 51.5279 56.2457 51.3719 56.147 51.2351L55.1665 49.8855C55.0041 49.6626 54.9945 49.3634 55.1442 49.1343C56.4081 47.1639 57.3026 45.0058 57.8024 42.7203C57.8597 42.4529 58.0794 42.246 58.35 42.2046L59.999 41.9436C60.1678 41.9182 60.327 41.8545 60.4798 41.7558C60.6421 40.6672 60.7217 39.5627 60.7217 38.4676C60.7217 37.3694 60.6389 36.2649 60.4798 35.1795C60.3301 35.0808 60.1678 35.0203 59.999 34.9916L58.35 34.7306C58.0794 34.6861 57.8597 34.4824 57.8024 34.215C57.3026 31.9295 56.4081 29.7714 55.1442 27.801C54.9945 27.5687 55.0041 27.2726 55.1665 27.0498L56.147 25.7002C56.2457 25.5633 56.3157 25.4042 56.3539 25.2323C55.0391 23.4561 53.4728 21.8932 51.6996 20.5786C51.5245 20.6168 51.3685 20.6869 51.2316 20.7855L49.8818 21.7659C49.659 21.9283 49.3597 21.9346 49.1305 21.7882C47.1599 20.5245 45.0014 19.6301 42.7156 19.1303C42.4482 19.073 42.2413 18.8534 42.1999 18.5828L41.9389 16.934C41.9102 16.7653 41.8497 16.6061 41.751 16.4534C39.5766 16.1319 37.345 16.1319 35.1706 16.4534C35.072 16.603 35.0115 16.7653 34.9828 16.934L34.7218 18.5828C34.6772 18.8534 34.4734 19.073 34.206 19.1303C31.9202 19.6301 29.7618 20.5245 27.7912 21.7882C27.5588 21.9346 27.2627 21.9283 27.0399 21.7659L25.6901 20.7855C25.5532 20.6869 25.394 20.6168 25.2221 20.5786C23.4457 21.8933 21.8825 23.4594 20.5678 25.2323C20.606 25.4074 20.676 25.5633 20.7747 25.7002L21.7552 27.0498C21.9176 27.2726 21.9271 27.5718 21.7775 27.801C20.5136 29.7714 19.6191 31.9295 19.1192 34.215C19.0619 34.4824 18.8423 34.6893 18.5717 34.7306L16.9226 34.9916C16.7539 35.0203 16.5947 35.0808 16.4419 35.1795C16.2796 36.268 16.2 37.3726 16.2 38.4676C16.2 39.5627 16.2827 40.6703 16.4419 41.7558C16.5915 41.8545 16.7539 41.915 16.9226 41.9436L18.5685 42.2046C18.8391 42.2492 19.0588 42.4529 19.1161 42.7203C19.6159 45.0058 20.5104 47.1639 21.7743 49.1343C21.9208 49.3666 21.9144 49.6626 21.752 49.8855L20.7715 51.2351C20.6728 51.3719 20.6028 51.5311 20.5646 51.703C21.8794 53.4792 23.4457 55.0421 25.2189 56.3566C25.394 56.3185 25.55 56.2484 25.6869 56.1497L27.0367 55.1694C27.2595 55.007 27.5588 55.0007 27.788 55.1471C29.7586 56.4108 31.9171 57.3052 34.2029 57.805C34.4703 57.8623 34.6772 58.0819 34.7186 58.3525L34.9796 60.0013C35.0083 60.17 35.0719 60.3291 35.1706 60.4819ZM38.4593 52.5146C30.7105 52.5146 24.4072 46.2121 24.4072 38.4646C24.4072 30.7171 30.7107 24.4145 38.4593 24.4145C46.2079 24.4145 52.5113 30.7171 52.5113 38.4646C52.5113 46.2121 46.2079 52.5146 38.4593 52.5146ZM51.1772 38.4646C51.1772 31.4522 45.4723 25.7485 38.4593 25.7485C31.4463 25.7485 25.7414 31.4526 25.7414 38.4646C25.7414 45.4766 31.4463 51.1807 38.4593 51.1807C45.4723 51.1807 51.1772 45.4766 51.1772 38.4646Z" fill="#0755EB"/>
<path d="M3.77483 33.1104C5.02918 24.9111 9.1932 17.389 15.5001 11.9302C21.4947 6.73851 29.068 3.74312 36.9734 3.40902L35.1174 1.38454C34.8691 1.11398 34.885 0.690629 35.1588 0.442386C35.4294 0.194102 35.8528 0.210016 36.1011 0.483766L38.9504 3.59365C38.9567 3.6032 38.9663 3.61275 38.9727 3.6223V3.62548C39.0172 3.68278 39.0554 3.74326 39.0777 3.80692C39.1032 3.87059 39.1191 3.94061 39.1223 4.01064V4.05521C39.1223 4.1507 39.1 4.23982 39.065 4.32258C39.03 4.39898 38.9822 4.47219 38.9154 4.53267C38.9026 4.5454 38.8867 4.55813 38.8708 4.57086C38.8167 4.61224 38.7626 4.64407 38.7021 4.66954C38.6352 4.695 38.5652 4.71092 38.492 4.7141H38.4538C21.9315 4.7141 7.58606 17.0106 5.08731 33.3146C5.03637 33.6456 4.75303 33.8811 4.42831 33.8811C4.39329 33.8811 4.36146 33.878 4.32644 33.8748C3.96988 33.8143 3.71753 33.4764 3.77483 33.1104ZM33.3084 71.8267C17.0021 69.3311 4.70392 54.9881 4.70392 38.4674C4.70392 38.4514 4.70392 38.4323 4.70074 38.4164C4.69437 38.3528 4.68164 38.2923 4.65935 38.2318C4.63388 38.1618 4.59249 38.0949 4.54156 38.0345V38.0313C4.53838 38.0281 4.53838 38.0281 4.53838 38.0249L4.53519 38.0217C4.46834 37.9517 4.39193 37.8976 4.30916 37.8626C4.22957 37.8276 4.1468 37.8085 4.05767 37.8085C4.03857 37.8085 4.01946 37.8085 4.00036 37.8116H3.99718C3.93032 37.8148 3.86347 37.8307 3.80298 37.8562C3.7425 37.8785 3.68201 37.9135 3.62789 37.9581C3.61516 37.9676 3.60561 37.9772 3.59287 37.9867L0.48255 40.8356C0.211949 41.0839 0.192846 41.5072 0.441163 41.7777C0.689482 42.0483 1.11289 42.0674 1.38345 41.8191L3.40821 39.9634C3.74249 47.867 6.73817 55.4395 11.9305 61.4337C17.3903 67.7395 24.9133 71.9032 33.1137 73.1573C33.1488 73.1637 33.1806 73.1637 33.2156 73.1637C33.5403 73.1637 33.8237 72.9281 33.8746 72.5971C33.9192 72.2215 33.6713 71.8808 33.3084 71.8267ZM72.5868 43.0575C72.2238 43.0034 71.8832 43.2517 71.8259 43.6146C69.33 59.9186 54.985 72.215 38.4619 72.215C38.446 72.2182 38.4301 72.215 38.4142 72.2182H38.411C38.3409 72.2246 38.2773 72.2373 38.2136 72.2628C38.1499 72.2883 38.0894 72.3233 38.0353 72.3678C38.0257 72.3774 38.0162 72.3838 38.0067 72.3933H38.0035C37.9334 72.457 37.8825 72.5334 37.8475 72.6161C37.8156 72.6925 37.7965 72.7753 37.7934 72.8612C37.7934 72.8835 37.7934 72.909 37.7965 72.9344C37.8029 72.9981 37.8156 73.0586 37.8379 73.119C37.8602 73.1795 37.8952 73.24 37.9366 73.2941C37.9462 73.3068 37.9589 73.3196 37.9716 73.3323L40.8209 76.4422C40.9482 76.5886 41.1297 76.6618 41.308 76.6618C41.4704 76.6618 41.6295 76.6045 41.7601 76.4868C42.0307 76.2385 42.0498 75.8151 41.8014 75.5446L39.9455 73.5201C47.8502 73.1859 55.4237 70.1906 61.4188 64.999C67.7254 59.54 71.8898 52.018 73.144 43.8188C73.2013 43.4527 72.9497 43.1148 72.5868 43.0575ZM76.4867 35.1634C76.2383 34.8929 75.8149 34.8738 75.5444 35.1221L73.5196 36.9778C73.1853 29.0742 70.1896 21.5017 64.9973 15.5075C59.5375 9.20173 52.0145 5.03797 43.8141 3.78387C43.4512 3.72976 43.1105 3.97804 43.0532 4.34091C42.9959 4.70379 43.2474 5.04438 43.6103 5.10167C59.9166 7.59723 72.2148 21.9402 72.2148 38.4634V38.5048C72.218 38.5749 72.2339 38.6449 72.2594 38.7085C72.2849 38.7722 72.3199 38.8327 72.3644 38.89V38.8932C72.374 38.9027 72.3804 38.9123 72.3899 38.9218C72.4536 38.9918 72.53 39.0428 72.6128 39.0778C72.6892 39.1096 72.7719 39.1319 72.8611 39.1319H72.8802C72.8993 39.1319 72.9152 39.1319 72.9343 39.1287H72.9375C73.0012 39.1224 73.0616 39.1096 73.119 39.0873H73.1221C73.1858 39.0619 73.2463 39.0269 73.3036 38.9823C73.3131 38.9727 73.3259 38.9632 73.3354 38.9536L76.4458 36.1048C76.7164 35.8565 76.735 35.4372 76.4867 35.1634ZM38.4593 62.0576C37.2049 62.0576 35.9411 61.9557 34.6995 61.7583C34.5467 61.7329 34.4066 61.6565 34.3047 61.5419C33.9641 61.1536 33.7412 60.6952 33.6648 60.2114L33.4738 59.0049C31.3472 58.4925 29.3257 57.6553 27.4569 56.5126L26.4701 57.2288C26.0753 57.5152 25.5946 57.6839 25.0789 57.719C24.9229 57.7285 24.7701 57.684 24.6459 57.5948C22.5989 56.1147 20.8066 54.3226 19.323 52.2727C19.2307 52.1486 19.1893 51.9958 19.1989 51.8398C19.2307 51.3273 19.3995 50.8435 19.6892 50.4488L20.4055 49.4621C19.2658 47.5936 18.4285 45.5756 17.9127 43.446L16.7093 43.2551C16.2254 43.1787 15.7638 42.9558 15.3786 42.6152C15.2608 42.5134 15.1844 42.3733 15.1621 42.2205C14.9647 40.9792 14.8629 39.7155 14.8629 38.4613C14.8629 37.2071 14.9647 35.9402 15.1621 34.702C15.1876 34.5492 15.264 34.4092 15.3786 34.3073C15.767 33.9667 16.2255 33.7439 16.7093 33.6675L17.9127 33.4765C18.4253 31.3502 19.2625 29.329 20.4055 27.4605L19.6892 26.4737C19.4026 26.079 19.2339 25.5984 19.1989 25.0827C19.1893 24.9268 19.2339 24.774 19.323 24.6498C20.8034 22.6031 22.5957 20.8111 24.6459 19.3277C24.7701 19.2354 24.9229 19.194 25.0789 19.2036C25.5914 19.2354 26.0722 19.4041 26.4701 19.6938L27.4569 20.41C29.3257 19.2673 31.344 18.4333 33.4738 17.9176L33.6648 16.7144C33.7412 16.2305 33.9641 15.769 34.3047 15.3838C34.4066 15.2661 34.5467 15.1897 34.6995 15.1674C37.1795 14.7695 39.7422 14.7695 42.2222 15.1674C42.3751 15.1929 42.5151 15.2693 42.617 15.3838C42.9576 15.7722 43.1805 16.2306 43.2569 16.7144L43.4479 17.9176C45.5746 18.4301 47.596 19.2672 49.4648 20.41L50.4517 19.6938C50.8465 19.4073 51.3271 19.2386 51.8429 19.2036C51.9989 19.194 52.1517 19.2386 52.2758 19.3277C54.3228 20.8079 56.1152 22.5999 57.5987 24.6498C57.691 24.774 57.7324 24.93 57.7228 25.0827C57.691 25.5952 57.5223 26.0791 57.2326 26.4737L56.5163 27.4605C57.6591 29.329 58.4933 31.347 59.009 33.4765L60.2124 33.6675C60.6963 33.7439 61.158 33.9635 61.5431 34.3073C61.6609 34.4092 61.7373 34.5492 61.7596 34.702C61.957 35.9434 62.0589 37.2071 62.0589 38.4613C62.0589 39.7155 61.957 40.9791 61.7596 42.2205C61.7341 42.3733 61.6577 42.5134 61.5431 42.6152C61.1547 42.9558 60.6963 43.1787 60.2124 43.2551L59.0026 43.4492C58.4901 45.5756 57.6529 47.5968 56.5099 49.4653L57.2262 50.452C57.5127 50.8467 57.6815 51.3273 57.7165 51.843C57.726 51.999 57.6815 52.1518 57.5923 52.2759C56.112 54.3226 54.3197 56.1147 52.2695 57.598C52.1453 57.6903 51.9925 57.7317 51.8365 57.7221C51.324 57.6903 50.8432 57.5216 50.4453 57.2319L49.4585 56.5157C47.5897 57.6553 45.5714 58.4925 43.4416 59.0081L43.2505 60.2114C43.1741 60.6952 42.9513 61.1568 42.6106 61.5419C42.5088 61.6597 42.3687 61.7361 42.2159 61.7583C40.9807 61.9557 39.7136 62.0576 38.4593 62.0576ZM35.1706 60.4819C37.345 60.8034 39.5735 60.8034 41.751 60.4819C41.8497 60.3323 41.9102 60.17 41.9389 60.0013L42.1999 58.3525C42.2445 58.0819 42.4482 57.8623 42.7156 57.805C45.0014 57.3052 47.1599 56.4108 49.1305 55.1471C49.3629 55.0007 49.659 55.007 49.8818 55.1694L51.2316 56.1497C51.3685 56.2484 51.5277 56.3184 51.6996 56.3566C53.476 55.042 55.0392 53.4759 56.3539 51.703C56.3157 51.5279 56.2457 51.3719 56.147 51.2351L55.1665 49.8855C55.0041 49.6626 54.9945 49.3634 55.1442 49.1343C56.4081 47.1639 57.3026 45.0058 57.8024 42.7203C57.8597 42.4529 58.0794 42.246 58.35 42.2046L59.999 41.9436C60.1678 41.9182 60.327 41.8545 60.4798 41.7558C60.6421 40.6672 60.7217 39.5627 60.7217 38.4676C60.7217 37.3694 60.6389 36.2649 60.4798 35.1795C60.3301 35.0808 60.1678 35.0203 59.999 34.9916L58.35 34.7306C58.0794 34.6861 57.8597 34.4824 57.8024 34.215C57.3026 31.9295 56.4081 29.7714 55.1442 27.801C54.9945 27.5687 55.0041 27.2726 55.1665 27.0498L56.147 25.7002C56.2457 25.5633 56.3157 25.4042 56.3539 25.2323C55.0391 23.4561 53.4728 21.8932 51.6996 20.5786C51.5245 20.6168 51.3685 20.6869 51.2316 20.7855L49.8818 21.7659C49.659 21.9283 49.3597 21.9346 49.1305 21.7882C47.1599 20.5245 45.0014 19.6301 42.7156 19.1303C42.4482 19.073 42.2413 18.8534 42.1999 18.5828L41.9389 16.934C41.9102 16.7653 41.8497 16.6061 41.751 16.4534C39.5766 16.1319 37.345 16.1319 35.1706 16.4534C35.072 16.603 35.0115 16.7653 34.9828 16.934L34.7218 18.5828C34.6772 18.8534 34.4734 19.073 34.206 19.1303C31.9202 19.6301 29.7618 20.5245 27.7912 21.7882C27.5588 21.9346 27.2627 21.9283 27.0399 21.7659L25.6901 20.7855C25.5532 20.6869 25.394 20.6168 25.2221 20.5786C23.4457 21.8933 21.8825 23.4594 20.5678 25.2323C20.606 25.4074 20.676 25.5633 20.7747 25.7002L21.7552 27.0498C21.9176 27.2726 21.9271 27.5718 21.7775 27.801C20.5136 29.7714 19.6191 31.9295 19.1192 34.215C19.0619 34.4824 18.8423 34.6893 18.5717 34.7306L16.9226 34.9916C16.7539 35.0203 16.5947 35.0808 16.4419 35.1795C16.2796 36.268 16.2 37.3726 16.2 38.4676C16.2 39.5627 16.2827 40.6703 16.4419 41.7558C16.5915 41.8545 16.7539 41.915 16.9226 41.9436L18.5685 42.2046C18.8391 42.2492 19.0588 42.4529 19.1161 42.7203C19.6159 45.0058 20.5104 47.1639 21.7743 49.1343C21.9208 49.3666 21.9144 49.6626 21.752 49.8855L20.7715 51.2351C20.6728 51.3719 20.6028 51.5311 20.5646 51.703C21.8794 53.4792 23.4457 55.0421 25.2189 56.3566C25.394 56.3185 25.55 56.2484 25.6869 56.1497L27.0367 55.1694C27.2595 55.007 27.5588 55.0007 27.788 55.1471C29.7586 56.4108 31.9171 57.3052 34.2029 57.805C34.4703 57.8623 34.6772 58.0819 34.7186 58.3525L34.9796 60.0013C35.0083 60.17 35.0719 60.3291 35.1706 60.4819ZM38.4593 52.5146C30.7105 52.5146 24.4072 46.2121 24.4072 38.4646C24.4072 30.7171 30.7107 24.4145 38.4593 24.4145C46.2079 24.4145 52.5113 30.7171 52.5113 38.4646C52.5113 46.2121 46.2079 52.5146 38.4593 52.5146ZM51.1772 38.4646C51.1772 31.4522 45.4723 25.7485 38.4593 25.7485C31.4463 25.7485 25.7414 31.4526 25.7414 38.4646C25.7414 45.4766 31.4463 51.1807 38.4593 51.1807C45.4723 51.1807 51.1772 45.4766 51.1772 38.4646Z" stroke="#0755EB" stroke-width="0.533432" mask="url(#path-1-outside-1_2051_964)"/>
</svg>
