<svg width="72" height="72" viewBox="0 0 72 72" fill="none" xmlns="http://www.w3.org/2000/svg">
<mask id="path-1-outside-1_1490_197" maskUnits="userSpaceOnUse" x="4.16669" y="7.25" width="63" height="57" fill="black">
<rect fill="white" x="4.16669" y="7.25" width="63" height="57"/>
<path d="M63.2101 35.5638H58.3625C57.895 32.0694 54.7801 29.45 51.0867 29.4417C50.8062 29.4417 50.5783 29.659 50.5783 29.9237C50.5783 30.1913 50.8062 30.4086 51.0867 30.4086C54.5785 30.4114 57.4099 33.1116 57.4128 36.4415V56.7418C57.4128 60.0774 54.5814 62.7803 51.0867 62.7832H21.1949C17.7002 62.7804 14.8659 60.0774 14.86 56.7418V36.4415C14.8658 33.1088 17.7002 30.4086 21.1949 30.4086C21.4754 30.4086 21.7033 30.1913 21.7033 29.9237C21.7033 29.659 21.4754 29.4417 21.1949 29.4417C17.4986 29.4472 14.3808 32.0666 13.9104 35.5638H9.08618C7.08753 35.5638 5.46289 37.1131 5.46289 39.0192V54.1725C5.46289 56.0785 7.08753 57.6279 9.08618 57.6279H13.9338C14.4013 61.1167 17.5073 63.7333 21.1949 63.75H51.0867C54.7801 63.7416 57.895 61.1222 58.3625 57.6279H63.2101C65.2116 57.6279 66.8334 56.0785 66.8334 54.1725V39.0192C66.8334 38.1024 66.4506 37.2246 65.7727 36.5781C65.0918 35.9288 64.1714 35.5638 63.2101 35.5638ZM6.47677 54.142V39.0193C6.47677 37.6455 7.64556 36.5309 9.08611 36.5309H13.8723V56.6614H9.08611C7.64847 56.6586 6.47968 55.5439 6.47677 54.1729V54.142ZM65.8192 54.142C65.8163 55.5158 64.6504 56.6276 63.2099 56.6304H58.4266V36.5306H63.2099C63.9024 36.5306 64.5656 36.7925 65.0566 37.2607C65.5445 37.726 65.8192 38.3586 65.8192 39.019V54.142ZM10.1698 35.4304C10.4503 35.4304 10.6753 35.2158 10.6753 34.9483V17.769C13.3255 17.5099 15.3008 15.3168 15.1663 12.781C15.0319 10.2424 12.8346 8.25 10.1698 8.25C7.50491 8.25 5.30759 10.2424 5.17316 12.781C5.03875 15.3168 7.01398 17.5098 9.66424 17.769V34.9483C9.66424 35.2158 9.88926 35.4304 10.1698 35.4304ZM6.18129 13.0207C6.18129 11.4769 7.15433 10.0864 8.65038 9.49845C10.1435 8.90769 11.8646 9.23372 13.007 10.3261C14.1495 11.4184 14.4885 13.0597 13.869 14.4837C13.2466 15.9076 11.7886 16.8356 10.1698 16.8328C7.96661 16.8272 6.18129 15.1218 6.18129 13.0207ZM38.7436 44.5122C38.805 44.5262 38.8693 44.5262 38.9306 44.5122C39.0709 44.5122 39.2024 44.4565 39.2959 44.3562L45.172 38.3511C47.568 38.2786 49.4732 36.4088 49.479 34.1238V22.7406C49.4761 20.5058 47.5768 18.6945 45.2333 18.6889H27.0615C24.7181 18.6945 22.8188 20.5058 22.8159 22.7406V34.3471C22.8188 36.5819 24.7181 38.3932 27.0615 38.396H34.0275C36.4528 38.396 38.4193 40.2686 38.4222 42.5815V44.0667C38.4193 44.2645 38.5479 44.4426 38.7436 44.5122ZM34.0305 37.4232H27.0616C25.2821 37.4204 23.8386 36.0466 23.8299 34.3468V22.7403C23.8299 21.0349 25.2762 19.6528 27.0616 19.6472H45.2334C46.0924 19.6472 46.9164 19.9733 47.5213 20.5528C48.129 21.1352 48.468 21.9211 48.468 22.7403V34.1599C48.4621 35.9628 46.9281 37.4229 45.0376 37.4229C44.8447 37.4257 44.6577 37.5038 44.5233 37.6375L39.4362 42.8401V42.5809C39.4099 39.7414 37.0051 37.4481 34.0275 37.4229L34.0305 37.4232ZM41.4085 32.764H30.8897C30.6092 32.764 30.3813 32.5467 30.3813 32.2819C30.3813 32.0144 30.6092 31.7971 30.8897 31.7971H41.4085C41.6861 31.7971 41.914 32.0144 41.914 32.2819C41.914 32.5467 41.6861 32.764 41.4085 32.764ZM30.3811 30.0527C30.3811 29.7851 30.609 29.5678 30.8895 29.5678H36.149C36.4266 29.5678 36.6545 29.7851 36.6545 30.0527C36.6545 30.3174 36.4266 30.5347 36.149 30.5347H30.8895C30.609 30.5347 30.3811 30.3174 30.3811 30.0527ZM30.3811 27.8234C30.3811 27.5559 30.609 27.3385 30.8895 27.3385H41.4082C41.6858 27.3385 41.9137 27.5559 41.9137 27.8234C41.9137 28.0881 41.6858 28.3055 41.4082 28.3055H30.8895C30.609 28.3055 30.3811 28.0881 30.3811 27.8234ZM30.3811 25.5941C30.3811 25.3266 30.609 25.1093 30.8895 25.1093H36.149C36.4266 25.1093 36.6545 25.3266 36.6545 25.5941C36.6545 25.8588 36.4266 26.0762 36.149 26.0762H30.8895C30.609 26.0762 30.3811 25.8588 30.3811 25.5941Z"/>
</mask>
<path d="M63.2101 35.5638H58.3625C57.895 32.0694 54.7801 29.45 51.0867 29.4417C50.8062 29.4417 50.5783 29.659 50.5783 29.9237C50.5783 30.1913 50.8062 30.4086 51.0867 30.4086C54.5785 30.4114 57.4099 33.1116 57.4128 36.4415V56.7418C57.4128 60.0774 54.5814 62.7803 51.0867 62.7832H21.1949C17.7002 62.7804 14.8659 60.0774 14.86 56.7418V36.4415C14.8658 33.1088 17.7002 30.4086 21.1949 30.4086C21.4754 30.4086 21.7033 30.1913 21.7033 29.9237C21.7033 29.659 21.4754 29.4417 21.1949 29.4417C17.4986 29.4472 14.3808 32.0666 13.9104 35.5638H9.08618C7.08753 35.5638 5.46289 37.1131 5.46289 39.0192V54.1725C5.46289 56.0785 7.08753 57.6279 9.08618 57.6279H13.9338C14.4013 61.1167 17.5073 63.7333 21.1949 63.75H51.0867C54.7801 63.7416 57.895 61.1222 58.3625 57.6279H63.2101C65.2116 57.6279 66.8334 56.0785 66.8334 54.1725V39.0192C66.8334 38.1024 66.4506 37.2246 65.7727 36.5781C65.0918 35.9288 64.1714 35.5638 63.2101 35.5638ZM6.47677 54.142V39.0193C6.47677 37.6455 7.64556 36.5309 9.08611 36.5309H13.8723V56.6614H9.08611C7.64847 56.6586 6.47968 55.5439 6.47677 54.1729V54.142ZM65.8192 54.142C65.8163 55.5158 64.6504 56.6276 63.2099 56.6304H58.4266V36.5306H63.2099C63.9024 36.5306 64.5656 36.7925 65.0566 37.2607C65.5445 37.726 65.8192 38.3586 65.8192 39.019V54.142ZM10.1698 35.4304C10.4503 35.4304 10.6753 35.2158 10.6753 34.9483V17.769C13.3255 17.5099 15.3008 15.3168 15.1663 12.781C15.0319 10.2424 12.8346 8.25 10.1698 8.25C7.50491 8.25 5.30759 10.2424 5.17316 12.781C5.03875 15.3168 7.01398 17.5098 9.66424 17.769V34.9483C9.66424 35.2158 9.88926 35.4304 10.1698 35.4304ZM6.18129 13.0207C6.18129 11.4769 7.15433 10.0864 8.65038 9.49845C10.1435 8.90769 11.8646 9.23372 13.007 10.3261C14.1495 11.4184 14.4885 13.0597 13.869 14.4837C13.2466 15.9076 11.7886 16.8356 10.1698 16.8328C7.96661 16.8272 6.18129 15.1218 6.18129 13.0207ZM38.7436 44.5122C38.805 44.5262 38.8693 44.5262 38.9306 44.5122C39.0709 44.5122 39.2024 44.4565 39.2959 44.3562L45.172 38.3511C47.568 38.2786 49.4732 36.4088 49.479 34.1238V22.7406C49.4761 20.5058 47.5768 18.6945 45.2333 18.6889H27.0615C24.7181 18.6945 22.8188 20.5058 22.8159 22.7406V34.3471C22.8188 36.5819 24.7181 38.3932 27.0615 38.396H34.0275C36.4528 38.396 38.4193 40.2686 38.4222 42.5815V44.0667C38.4193 44.2645 38.5479 44.4426 38.7436 44.5122ZM34.0305 37.4232H27.0616C25.2821 37.4204 23.8386 36.0466 23.8299 34.3468V22.7403C23.8299 21.0349 25.2762 19.6528 27.0616 19.6472H45.2334C46.0924 19.6472 46.9164 19.9733 47.5213 20.5528C48.129 21.1352 48.468 21.9211 48.468 22.7403V34.1599C48.4621 35.9628 46.9281 37.4229 45.0376 37.4229C44.8447 37.4257 44.6577 37.5038 44.5233 37.6375L39.4362 42.8401V42.5809C39.4099 39.7414 37.0051 37.4481 34.0275 37.4229L34.0305 37.4232ZM41.4085 32.764H30.8897C30.6092 32.764 30.3813 32.5467 30.3813 32.2819C30.3813 32.0144 30.6092 31.7971 30.8897 31.7971H41.4085C41.6861 31.7971 41.914 32.0144 41.914 32.2819C41.914 32.5467 41.6861 32.764 41.4085 32.764ZM30.3811 30.0527C30.3811 29.7851 30.609 29.5678 30.8895 29.5678H36.149C36.4266 29.5678 36.6545 29.7851 36.6545 30.0527C36.6545 30.3174 36.4266 30.5347 36.149 30.5347H30.8895C30.609 30.5347 30.3811 30.3174 30.3811 30.0527ZM30.3811 27.8234C30.3811 27.5559 30.609 27.3385 30.8895 27.3385H41.4082C41.6858 27.3385 41.9137 27.5559 41.9137 27.8234C41.9137 28.0881 41.6858 28.3055 41.4082 28.3055H30.8895C30.609 28.3055 30.3811 28.0881 30.3811 27.8234ZM30.3811 25.5941C30.3811 25.3266 30.609 25.1093 30.8895 25.1093H36.149C36.4266 25.1093 36.6545 25.3266 36.6545 25.5941C36.6545 25.8588 36.4266 26.0762 36.149 26.0762H30.8895C30.609 26.0762 30.3811 25.8588 30.3811 25.5941Z" fill="#0755EB"/>
<path d="M63.2101 35.5638H58.3625C57.895 32.0694 54.7801 29.45 51.0867 29.4417C50.8062 29.4417 50.5783 29.659 50.5783 29.9237C50.5783 30.1913 50.8062 30.4086 51.0867 30.4086C54.5785 30.4114 57.4099 33.1116 57.4128 36.4415V56.7418C57.4128 60.0774 54.5814 62.7803 51.0867 62.7832H21.1949C17.7002 62.7804 14.8659 60.0774 14.86 56.7418V36.4415C14.8658 33.1088 17.7002 30.4086 21.1949 30.4086C21.4754 30.4086 21.7033 30.1913 21.7033 29.9237C21.7033 29.659 21.4754 29.4417 21.1949 29.4417C17.4986 29.4472 14.3808 32.0666 13.9104 35.5638H9.08618C7.08753 35.5638 5.46289 37.1131 5.46289 39.0192V54.1725C5.46289 56.0785 7.08753 57.6279 9.08618 57.6279H13.9338C14.4013 61.1167 17.5073 63.7333 21.1949 63.75H51.0867C54.7801 63.7416 57.895 61.1222 58.3625 57.6279H63.2101C65.2116 57.6279 66.8334 56.0785 66.8334 54.1725V39.0192C66.8334 38.1024 66.4506 37.2246 65.7727 36.5781C65.0918 35.9288 64.1714 35.5638 63.2101 35.5638ZM6.47677 54.142V39.0193C6.47677 37.6455 7.64556 36.5309 9.08611 36.5309H13.8723V56.6614H9.08611C7.64847 56.6586 6.47968 55.5439 6.47677 54.1729V54.142ZM65.8192 54.142C65.8163 55.5158 64.6504 56.6276 63.2099 56.6304H58.4266V36.5306H63.2099C63.9024 36.5306 64.5656 36.7925 65.0566 37.2607C65.5445 37.726 65.8192 38.3586 65.8192 39.019V54.142ZM10.1698 35.4304C10.4503 35.4304 10.6753 35.2158 10.6753 34.9483V17.769C13.3255 17.5099 15.3008 15.3168 15.1663 12.781C15.0319 10.2424 12.8346 8.25 10.1698 8.25C7.50491 8.25 5.30759 10.2424 5.17316 12.781C5.03875 15.3168 7.01398 17.5098 9.66424 17.769V34.9483C9.66424 35.2158 9.88926 35.4304 10.1698 35.4304ZM6.18129 13.0207C6.18129 11.4769 7.15433 10.0864 8.65038 9.49845C10.1435 8.90769 11.8646 9.23372 13.007 10.3261C14.1495 11.4184 14.4885 13.0597 13.869 14.4837C13.2466 15.9076 11.7886 16.8356 10.1698 16.8328C7.96661 16.8272 6.18129 15.1218 6.18129 13.0207ZM38.7436 44.5122C38.805 44.5262 38.8693 44.5262 38.9306 44.5122C39.0709 44.5122 39.2024 44.4565 39.2959 44.3562L45.172 38.3511C47.568 38.2786 49.4732 36.4088 49.479 34.1238V22.7406C49.4761 20.5058 47.5768 18.6945 45.2333 18.6889H27.0615C24.7181 18.6945 22.8188 20.5058 22.8159 22.7406V34.3471C22.8188 36.5819 24.7181 38.3932 27.0615 38.396H34.0275C36.4528 38.396 38.4193 40.2686 38.4222 42.5815V44.0667C38.4193 44.2645 38.5479 44.4426 38.7436 44.5122ZM34.0305 37.4232H27.0616C25.2821 37.4204 23.8386 36.0466 23.8299 34.3468V22.7403C23.8299 21.0349 25.2762 19.6528 27.0616 19.6472H45.2334C46.0924 19.6472 46.9164 19.9733 47.5213 20.5528C48.129 21.1352 48.468 21.9211 48.468 22.7403V34.1599C48.4621 35.9628 46.9281 37.4229 45.0376 37.4229C44.8447 37.4257 44.6577 37.5038 44.5233 37.6375L39.4362 42.8401V42.5809C39.4099 39.7414 37.0051 37.4481 34.0275 37.4229L34.0305 37.4232ZM41.4085 32.764H30.8897C30.6092 32.764 30.3813 32.5467 30.3813 32.2819C30.3813 32.0144 30.6092 31.7971 30.8897 31.7971H41.4085C41.6861 31.7971 41.914 32.0144 41.914 32.2819C41.914 32.5467 41.6861 32.764 41.4085 32.764ZM30.3811 30.0527C30.3811 29.7851 30.609 29.5678 30.8895 29.5678H36.149C36.4266 29.5678 36.6545 29.7851 36.6545 30.0527C36.6545 30.3174 36.4266 30.5347 36.149 30.5347H30.8895C30.609 30.5347 30.3811 30.3174 30.3811 30.0527ZM30.3811 27.8234C30.3811 27.5559 30.609 27.3385 30.8895 27.3385H41.4082C41.6858 27.3385 41.9137 27.5559 41.9137 27.8234C41.9137 28.0881 41.6858 28.3055 41.4082 28.3055H30.8895C30.609 28.3055 30.3811 28.0881 30.3811 27.8234ZM30.3811 25.5941C30.3811 25.3266 30.609 25.1093 30.8895 25.1093H36.149C36.4266 25.1093 36.6545 25.3266 36.6545 25.5941C36.6545 25.8588 36.4266 26.0762 36.149 26.0762H30.8895C30.609 26.0762 30.3811 25.8588 30.3811 25.5941Z" stroke="#0755EB" stroke-width="0.616667" mask="url(#path-1-outside-1_1490_197)"/>
</svg>
