<svg width="72" height="72" viewBox="0 0 72 72" fill="none" xmlns="http://www.w3.org/2000/svg">
<path fill-rule="evenodd" clip-rule="evenodd" d="M54.5175 20.6486C54.6566 21.0888 54.893 21.4792 55.2058 21.7986C55.7134 22.3168 56.4157 22.6398 57.191 22.6398C57.9662 22.6398 58.6685 22.3204 59.1761 21.7986C59.6836 21.2804 60 20.5634 60 19.7719C60 18.9803 59.6871 18.2633 59.1761 17.7451C58.6685 17.2269 57.9662 16.9039 57.191 16.9039C56.4157 16.9039 55.7134 17.2233 55.2058 17.7451C54.893 18.0645 54.6566 18.4585 54.5175 18.8951H46.1113V15.871C46.1148 15.6935 46.1148 15.7574 46.1148 15.69C46.1148 15.5693 46.1113 15.4522 46.1078 15.335V15.3315C46.0174 12.7971 44.9745 10.5149 43.3336 8.83956C41.6162 7.08612 39.2417 6 36.6239 6C34.2459 6 32.0731 6.89447 30.4044 8.3746C28.8921 9.71633 27.8005 11.5372 27.3555 13.6065C24.9879 13.7662 22.8569 14.8133 21.2786 16.4248C19.5612 18.1782 18.4974 20.6025 18.4974 23.2752C18.4974 24.3755 18.6781 25.4333 19.0084 26.42C19.2344 27.0944 19.5368 27.7404 19.8984 28.3438C19.1197 28.784 18.407 29.3341 17.7812 29.9731C16.0638 31.7265 15 34.1508 15 36.8235C15 38.6267 15.4832 40.3198 16.328 41.7679C17.0616 43.0244 18.0663 44.0999 19.2588 44.9091C18.7651 46.0805 18.4939 47.3689 18.4939 48.7248C18.4939 51.401 19.5577 53.8218 21.2751 55.5752C22.8534 57.1866 24.9811 58.2302 27.3486 58.3935C27.7449 60.2321 28.6487 61.8755 29.9073 63.1604C31.6247 64.9139 33.9992 66 36.617 66C39.2382 66 41.6127 64.9139 43.3267 63.1604C44.9676 61.4851 46.0105 59.2028 46.1009 56.6685V56.665C46.1044 56.5478 46.1079 56.4272 46.1079 56.31C46.1079 56.2426 46.1044 56.3065 46.1044 56.129V53.1049H54.5106C54.6496 53.545 54.8861 53.9355 55.1989 54.2549C55.7065 54.7731 56.4088 55.0961 57.184 55.0961C57.9593 55.0961 58.6616 54.7767 59.1692 54.2549C59.6767 53.7367 59.9931 53.0197 59.9931 52.2281C59.9931 51.4366 59.6802 50.7196 59.1692 50.2014C58.6616 49.6832 57.9593 49.3602 57.184 49.3602C56.4088 49.3602 55.7065 49.6796 55.1989 50.2014C54.8861 50.5208 54.6496 50.9113 54.5106 51.3514H46.1044V36.8764H54.5106C54.6496 37.3166 54.8861 37.707 55.1989 38.0264C55.7065 38.5447 56.4088 38.8677 57.184 38.8677C57.9593 38.8677 58.6616 38.5482 59.1692 38.0264C59.6767 37.5082 59.9931 36.7912 59.9931 35.9997C59.9931 35.2081 59.6802 34.4911 59.1692 33.9729C58.6616 33.4547 57.9593 33.1317 57.184 33.1317C56.4088 33.1317 55.7065 33.4511 55.1989 33.9729C54.8861 34.2924 54.6496 34.6828 54.5106 35.1229H46.1044V20.648L54.5175 20.6444L54.5175 20.6486ZM56.0993 36C56.0993 35.6912 56.2209 35.4143 56.4191 35.212C56.6173 35.0097 56.8884 34.8854 57.1909 34.8854C57.4933 34.8854 57.7645 35.0097 57.9627 35.212C58.1608 35.4143 58.2825 35.6912 58.2825 36C58.2825 36.3088 58.1608 36.5856 57.9627 36.7879C57.7645 36.9903 57.4934 37.1145 57.1909 37.1145C56.8884 37.1145 56.6173 36.9903 56.4191 36.7879C56.2209 36.5856 56.0993 36.3088 56.0993 36ZM56.0993 52.2281C56.0993 51.9193 56.2209 51.6424 56.4191 51.4401C56.6173 51.2378 56.8884 51.1135 57.1909 51.1135C57.4933 51.1135 57.7645 51.2378 57.9627 51.4401C58.1608 51.6424 58.2825 51.9192 58.2825 52.2281C58.2825 52.5369 58.1608 52.8137 57.9627 53.016C57.7645 53.2184 57.4934 53.3426 57.1909 53.3426C56.8884 53.3426 56.6173 53.2184 56.4191 53.016C56.2209 52.8137 56.0993 52.5369 56.0993 52.2281ZM44.3942 15.3774V56.6223C44.3142 58.6881 43.4624 60.5516 42.124 61.9216C40.716 63.3591 38.7727 64.2465 36.6276 64.2465C34.4791 64.2465 32.5357 63.3592 31.1312 61.9216C29.7233 60.4841 28.8541 58.5 28.8541 56.3099C28.8541 54.1306 29.7128 52.1571 31.0999 50.7231C32.494 49.2856 34.42 48.3876 36.5511 48.3699C37.0239 48.3663 37.4028 47.9724 37.3993 47.4896C37.3959 47.0069 37.01 46.62 36.5372 46.6236C33.9333 46.6484 31.5832 47.7417 29.8866 49.4915C28.1865 51.2449 27.1367 53.655 27.1367 56.31C27.1367 56.4129 27.1402 56.5158 27.1402 56.6188C25.3359 56.4164 23.7123 55.5859 22.4955 54.34C21.0876 52.9025 20.2184 50.9184 20.2184 48.7283C20.2184 46.5347 21.0875 44.5506 22.4955 43.1166C23.9035 41.6791 25.8468 40.7917 27.9919 40.7917C28.6559 40.7917 29.3026 40.8769 29.9144 41.0367C30.5506 41.1999 31.1486 41.4413 31.7048 41.7501C32.1185 41.9808 32.64 41.8246 32.866 41.4023C33.092 40.9799 32.939 40.4474 32.5253 40.2167C31.8369 39.8334 31.0999 39.5352 30.3317 39.3365C29.5807 39.1412 28.7985 39.0383 27.9954 39.0383C25.3742 39.0383 22.9997 40.1244 21.2857 41.8779C20.8408 42.3322 20.4375 42.8327 20.0898 43.3722C19.1685 42.7226 18.3897 41.8743 17.8161 40.884C17.1278 39.6985 16.728 38.3142 16.728 36.8305C16.728 34.637 17.5971 32.6528 19.0051 31.2189C20.413 29.7814 22.3564 28.894 24.5014 28.894C25.7321 28.894 26.8898 29.1815 27.9153 29.6926C28.9861 30.225 29.9178 31.0059 30.6444 31.9571C30.9364 32.3369 31.4718 32.4044 31.8438 32.1062C32.2158 31.8116 32.2819 31.2615 31.9898 30.8816C31.1068 29.7245 29.97 28.7768 28.6628 28.1237C27.4008 27.4919 25.9859 27.1405 24.4979 27.1405C23.448 27.1405 22.4329 27.3144 21.4908 27.6374C21.1396 27.0908 20.8511 26.4945 20.639 25.8592C20.3679 25.0535 20.2218 24.1874 20.2218 23.2823C20.2218 21.0887 21.091 19.1046 22.499 17.6706C23.9069 16.2331 25.8503 15.3457 27.9953 15.3457C30.1438 15.3457 32.0872 16.2331 33.4917 17.6706C34.8997 19.1081 35.7688 21.0923 35.7688 23.2823C35.7688 23.4846 35.7619 23.6728 35.7514 23.8431C35.7375 24.0312 35.7202 24.2158 35.6958 24.3933C35.6298 24.8725 35.9566 25.3126 36.4259 25.38C36.8952 25.4474 37.3263 25.1138 37.3923 24.6346C37.4236 24.4075 37.4445 24.1838 37.4618 23.9602C37.4792 23.7224 37.4862 23.4988 37.4862 23.2823C37.4862 20.606 36.4224 18.1853 34.705 16.4318C33.2345 14.9304 31.2841 13.9188 29.1078 13.6597C29.511 12.1015 30.3698 10.7313 31.5275 9.70556C32.8902 8.49523 34.6737 7.76403 36.6275 7.76403C38.776 7.76403 40.7194 8.65139 42.1239 10.0889C43.4623 11.4484 44.3142 13.3117 44.3942 15.3774ZM56.4197 20.5596C56.2215 20.3573 56.0998 20.0804 56.0998 19.7716C56.0998 19.4628 56.2215 19.1859 56.4197 18.9836C56.6178 18.7813 56.889 18.6571 57.1914 18.6571C57.4939 18.6571 57.7651 18.7813 57.9632 18.9836C58.1614 19.1859 58.2831 19.4628 58.2831 19.7716C58.2831 20.0804 58.1614 20.3573 57.9632 20.5596C57.7651 20.7619 57.4939 20.8861 57.1914 20.8861C56.889 20.8861 56.6178 20.7584 56.4197 20.5596Z" fill="#0755EB"/>
</svg>
