<svg width="66" height="88" viewBox="0 0 66 88" fill="none" xmlns="http://www.w3.org/2000/svg">
<path d="M28.7383 33.6962C28.1558 33.6962 27.6827 33.2204 27.6827 32.6323C27.6827 32.0442 28.1548 31.5684 28.7383 31.5684H42.0228C42.6053 31.5684 43.0784 32.0442 43.0784 32.6323C43.0784 33.2204 42.6063 33.6962 42.0228 33.6962H28.7383ZM22.4153 31.5684H16.2276C15.645 31.5684 15.172 32.0442 15.172 32.6323C15.172 33.2204 15.6441 33.6962 16.2276 33.6962H22.4153C22.9979 33.6962 23.4709 33.2204 23.4709 32.6323C23.4709 32.0442 22.9988 31.5684 22.4153 31.5684ZM37.6882 44.8649C37.6882 45.4521 38.1603 45.9289 38.7438 45.9289H45.4456C46.0281 45.9289 46.5011 45.453 46.5011 44.8649C46.5011 44.2769 46.029 43.801 45.4456 43.801H38.7438C38.1613 43.801 37.6882 44.2769 37.6882 44.8649ZM16.2266 19.1294H29.5112C30.0937 19.1294 30.5667 18.6536 30.5667 18.0655C30.5667 17.4774 30.0946 17.0016 29.5112 17.0016H16.2266C15.6441 17.0016 15.171 17.4774 15.171 18.0655C15.171 18.6536 15.6431 19.1294 16.2266 19.1294ZM65.2358 54.9304V81.3078C65.2358 84.6127 62.5688 87.3008 59.2898 87.3008H5.94601C2.667 87.3008 0 84.6127 0 81.3078V42.2047C0 39.6845 2.03404 37.6353 4.53351 37.6353H5.36445V11.8633C5.36445 9.58486 7.20337 7.7314 9.46394 7.7314H12.0415V4.26815C12.0415 1.91486 13.9413 0 16.2761 0H55.8251C58.16 0 60.0598 1.91486 60.0598 4.26815V48.9892C62.9752 49.372 65.2358 51.8893 65.2358 54.9304ZM14.1535 7.7314H37.9709C38.048 7.7314 38.1232 7.74003 38.1955 7.75634C38.5468 7.68055 38.918 7.78896 39.1731 8.05566C43.7085 12.7776 52.3472 21.7696 52.5756 22.0017L52.5766 22.0036C52.6099 22.0382 52.6404 22.0746 52.6699 22.113C52.6746 22.1188 52.6794 22.1255 52.6841 22.1312C52.7412 22.2118 52.7879 22.3001 52.8222 22.3951L52.8241 22.3999C52.8564 22.4929 52.8764 22.5917 52.8821 22.6953C52.8821 22.6992 52.8821 22.702 52.8821 22.7059C52.8821 22.7222 52.885 22.7375 52.885 22.7539V48.9374H57.9506V4.26815C57.9506 3.08815 56.9978 2.12784 55.827 2.12784H16.2771C15.1063 2.12784 14.1535 3.08815 14.1535 4.26815V7.7314ZM39.4681 11.4211L39.4605 21.0232C39.4605 21.3897 39.7546 21.689 40.1173 21.689H49.3347C46.7819 19.0345 42.0637 14.1226 39.4681 11.4211ZM7.47559 37.6343H28.1834C30.3411 37.6343 31.9811 39.2029 32.6836 41.938L34.2959 48.2572C34.4016 48.6707 34.7423 48.9374 35.165 48.9374H50.7729V23.8178H40.1154C38.5896 23.8178 37.3484 22.5639 37.3484 21.0232L37.3579 9.85924H9.46489C8.36839 9.85924 7.47654 10.7581 7.47654 11.8633L7.47559 37.6343ZM2.11113 42.2037V60.5657H63.1246V54.9295C63.1246 52.7978 61.4038 51.0643 59.2898 51.0643H35.1659C33.7924 51.0643 32.5941 50.1279 32.2524 48.7868L30.641 42.4694C30.3821 41.4593 29.7167 39.7622 28.1853 39.7622H4.53447C3.19811 39.7622 2.11113 40.8568 2.11113 42.2037ZM63.1246 81.3068V62.6935H2.11113V81.3068C2.11113 83.4385 3.83202 85.172 5.94601 85.172H59.2888C61.4038 85.172 63.1246 83.4375 63.1246 81.3068Z" fill="#0755EB"/>
</svg>
