<svg width="85" height="85" viewBox="0 0 85 85" fill="none" xmlns="http://www.w3.org/2000/svg">
<path d="M84.278 22.4596V28.9438C84.278 30.5176 83.0132 31.6659 81.2666 31.6659H78.966C78.6889 31.6659 78.4319 31.8426 78.3597 32.0755C78.0224 33.1354 77.5888 34.1713 77.0869 35.159C76.9744 35.3838 77.0266 35.6929 77.2194 35.8897L78.8414 37.5117C80.0741 38.7443 80.1584 40.4507 79.0462 41.5628L74.461 46.1479C73.3408 47.256 71.6463 47.1757 70.4097 45.9431L68.7876 44.3211C68.5909 44.1243 68.2857 44.0641 68.0569 44.1886C67.0691 44.6905 66.0332 45.1241 64.9853 45.4613C64.7403 45.5416 64.5637 45.7986 64.5637 46.0797V48.6693C64.5637 50.1708 63.3391 51.3914 61.8414 51.3914H55.357C53.8554 51.3914 52.6348 50.1668 52.6348 48.6693V44.8149C52.6348 44.2488 53.0965 43.7871 53.6626 43.7871C54.2288 43.7871 54.6905 44.2488 54.6905 44.8149V48.6693C54.6905 49.0387 54.9876 49.3358 55.357 49.3358H61.8415C62.2109 49.3358 62.508 49.0387 62.508 48.6693V46.0797C62.508 44.8993 63.2468 43.8593 64.359 43.5101C65.3146 43.2009 66.2381 42.8195 67.1334 42.3578C68.1733 41.8318 69.4261 42.0406 70.2572 42.8717L71.8793 44.4937C72.1042 44.7185 72.3612 44.855 72.59 44.8751C72.7546 44.8872 72.9072 44.8229 73.0317 44.6985L77.6169 40.1134C77.7414 39.9889 77.8016 39.8444 77.7936 39.6717C77.7816 39.4469 77.6491 39.198 77.4122 38.9611L75.7901 37.3391C74.959 36.508 74.7502 35.2513 75.2762 34.2154C75.7299 33.3321 76.1193 32.3966 76.4285 31.429C76.7778 30.3289 77.8178 29.5901 78.9982 29.5901H81.2989C81.7606 29.5901 82.2545 29.4135 82.2545 28.9236V22.4394C82.2545 21.9456 81.7606 21.773 81.2989 21.773H78.9982C77.8178 21.773 76.7778 21.0342 76.4285 19.9341C76.1193 18.9785 75.7299 18.0431 75.2762 17.1477C74.7502 16.1199 74.959 14.8672 75.7901 14.0321L77.4242 12.3981C77.7534 12.0689 77.9783 11.5951 77.629 11.2578L73.0437 6.67275C72.6944 6.32345 72.2206 6.54829 71.8914 6.87751L70.2573 8.51156C69.4141 9.35471 68.1613 9.55944 67.1214 9.02548C66.2381 8.57178 65.3106 8.18234 64.367 7.87318C63.2669 7.51183 62.528 6.48396 62.528 5.30359V2.71397C62.528 2.34458 62.2309 2.04748 61.8615 2.04748H55.3771C55.0077 2.04748 54.7106 2.34458 54.7106 2.71397V5.30359C54.7106 6.48396 53.9718 7.52392 52.8716 7.87318C51.916 8.18233 50.9925 8.57178 50.1052 9.02548C49.0653 9.55947 47.8125 9.35471 46.9693 8.51156L45.3352 6.87751C45.1104 6.65268 44.8534 6.51617 44.6245 6.4961C44.4599 6.48405 44.3073 6.54829 44.1828 6.67276L39.5976 11.2578C39.4731 11.3823 39.4129 11.5268 39.4209 11.6995C39.433 11.9243 39.5655 12.1732 39.8024 12.4101L41.4365 14.0442C42.2797 14.8873 42.4764 16.14 41.9384 17.1679C41.4847 18.0512 41.0952 18.9786 40.786 19.9342C40.4247 21.0343 39.3967 21.7731 38.2163 21.7731H35.9036C35.4419 21.7731 34.948 21.9497 34.948 22.4396V28.9238C34.948 29.4176 35.4419 29.5902 35.9036 29.5902H38.2043C39.3847 29.5902 40.4126 30.329 40.774 31.4291C41.0912 32.4048 41.4927 33.3523 41.9665 34.2677C42.0268 34.3922 42.0709 34.5126 42.0789 34.6491L42.2556 36.6446C42.2677 36.7891 42.2556 36.9336 42.2034 37.0661L41.5851 38.8528C41.3884 39.427 41.5329 40.0774 41.9665 40.499L43.7653 42.2977C44.741 43.2733 45.0904 44.7548 44.6406 46.0718L44.0343 47.8505C43.9099 48.2198 43.954 48.6414 44.1468 49.043C44.6808 50.0708 45.1224 51.1508 45.4838 52.259C45.5561 52.4758 45.7287 52.6203 45.9375 52.6203H48.3827C50.1293 52.6203 51.3941 53.7606 51.3941 55.3424V61.8266C51.3941 63.3282 50.1695 64.5487 48.6719 64.5487H46.0701C45.7931 64.5487 45.5361 64.7254 45.4638 64.9583C45.1266 66.0182 44.6929 67.0661 44.179 68.0538C44.0666 68.2786 44.1188 68.5797 44.3115 68.7725L45.9456 70.4065C47.1783 71.6391 47.2625 73.3455 46.1504 74.4576L41.5651 79.0427C40.5052 80.1026 38.7787 80.1026 37.7226 79.0427L35.8918 77.2119C35.687 77.0152 35.3899 76.9549 35.153 77.0794C34.1653 77.5813 33.1293 78.0149 32.0814 78.3522C31.8365 78.4325 31.6598 78.6894 31.6598 78.9705V81.5601C31.6598 83.0617 30.4352 84.2822 28.9376 84.2822H22.4531C20.9515 84.2822 19.7309 83.0577 19.7309 81.5601V78.9705C19.7309 78.6814 19.5542 78.4365 19.3093 78.3522C18.2494 78.0149 17.2134 77.5813 16.2377 77.0794C16.0008 76.9549 15.7037 77.0192 15.5069 77.2119L13.8849 78.8339C12.6522 80.0665 10.9457 80.1508 9.83359 79.0387L5.24834 74.4536C4.18839 73.3937 4.18839 71.6673 5.24834 70.6113L7.08731 68.7724C7.29208 68.5676 7.34428 68.2705 7.21981 68.0336C6.71792 67.058 6.28428 66.0181 5.93497 64.9621C5.85466 64.7172 5.60573 64.5406 5.31664 64.5406H3.01594C1.26938 64.5406 0.00457735 63.4003 0.00457735 61.8185V55.3343C0.00457735 53.8327 1.22919 52.6122 2.7268 52.6122H5.31654C5.60563 52.6122 5.85055 52.4355 5.93487 52.1906C6.28418 51.1226 6.71782 50.0947 7.21971 49.1071C7.33214 48.8822 7.27994 48.5811 7.08721 48.3884L5.44096 46.7422C4.20833 45.5096 4.12405 43.8032 5.23619 42.6911L9.82144 38.106C10.8814 37.0461 12.6079 37.0461 13.6639 38.106L15.5029 39.9449C15.7077 40.1497 16.0048 40.2019 16.2417 40.0774C17.2174 39.5756 18.2452 39.142 19.3053 38.8047C19.5502 38.7244 19.7269 38.4674 19.7269 38.1864V35.5967C19.7269 34.0952 20.9515 32.8746 22.4491 32.8746H28.9336C30.4352 32.8746 31.6558 34.0992 31.6558 35.5967V39.4511C31.6558 40.0172 31.194 40.479 30.6279 40.479C30.0618 40.479 29.6 40.0172 29.6 39.4511V35.5967C29.6 35.2274 29.3029 34.9303 28.9335 34.9303H22.4491C22.0797 34.9303 21.7826 35.2274 21.7826 35.5967V38.1864C21.7826 39.3667 21.0438 40.4067 19.9436 40.756C18.988 41.0651 18.0645 41.4546 17.1892 41.9083C16.1493 42.4423 14.8965 42.2375 14.0533 41.3943L12.2144 39.5554C11.9694 39.3105 11.5238 39.3105 11.2668 39.5554L6.68153 44.1405C6.55707 44.265 6.49684 44.4095 6.50487 44.5822C6.51692 44.807 6.64941 45.0559 6.88631 45.2928L8.53255 46.939C9.36368 47.7701 9.57246 49.0267 9.03445 50.0546C8.58073 50.9379 8.19127 51.8653 7.88209 52.8289C7.52073 53.929 6.49282 54.6678 5.3124 54.6678H2.72267C2.35327 54.6678 2.05616 54.9649 2.05616 55.3343V61.8185C2.05616 62.3123 2.55002 62.485 3.01176 62.485H5.31246C6.49287 62.485 7.52074 63.2237 7.88215 64.3239C8.19131 65.2714 8.58078 66.2028 9.0345 67.0781C9.56851 68.118 9.36374 69.3787 8.52056 70.2139L6.68159 72.0527C6.42462 72.3097 6.42462 72.7313 6.68159 73.0003L11.2668 77.5854C11.6162 77.9347 12.0899 77.7098 12.4072 77.3806L14.0293 75.7586C14.8604 74.9275 16.1171 74.7187 17.1531 75.2446C18.0364 75.6983 18.9719 76.0878 19.9275 76.3969C21.0276 76.7583 21.7785 77.7862 21.7785 78.9665V81.5562C21.7785 81.9255 22.0756 82.2226 22.445 82.2226H28.9295C29.2989 82.2226 29.596 81.9255 29.596 81.5562V78.9665C29.596 77.7862 30.3348 76.7462 31.447 76.3969C32.4026 76.0878 33.3261 75.7064 34.2214 75.2446C35.2493 74.7107 36.5141 74.9275 37.3453 75.7586L39.1761 77.5893C39.421 77.8343 39.8667 77.8343 40.1237 77.5893L44.7089 73.0043C44.8334 72.8798 44.8936 72.7353 44.8856 72.5626C44.8736 72.3378 44.7411 72.0889 44.5042 71.852L42.8701 70.2179C42.0389 69.3868 41.8302 68.1422 42.3561 67.1144C42.8098 66.219 43.1993 65.2836 43.5085 64.328C43.8578 63.2279 44.8977 62.4891 46.0782 62.4891H48.6799C49.0493 62.4891 49.3464 62.192 49.3464 61.8226V55.3385C49.3464 54.8446 48.8526 54.672 48.3908 54.672H45.9456C44.8455 54.672 43.8778 53.9533 43.5406 52.8853C43.2234 51.8896 42.8219 50.9099 42.336 49.9865C41.8743 49.0911 41.79 48.0955 42.0991 47.192L42.7054 45.4133C42.9022 44.8272 42.7576 44.2008 42.324 43.7672L40.5252 41.9685C39.5495 40.9928 39.2002 39.5113 39.6499 38.1944L40.196 36.6124L40.0514 35.0386C39.5696 34.083 39.156 33.0874 38.8268 32.0675C38.7465 31.8226 38.4976 31.646 38.2085 31.646H35.9078C34.1612 31.646 32.8964 30.5057 32.8964 28.9238V22.4397C32.8964 20.8658 34.1612 19.7175 35.9078 19.7175H38.2205C38.4975 19.7175 38.7545 19.5409 38.8268 19.308C39.1761 18.2481 39.6097 17.2122 40.1116 16.2365C40.2361 16.0117 40.1719 15.7025 39.9791 15.5058L38.345 13.8718C37.7508 13.2775 37.4095 12.5669 37.3693 11.8281C37.3292 11.0773 37.6062 10.3586 38.1402 9.82466L42.7255 5.2396C43.8336 4.13149 45.5401 4.21177 46.7768 5.44437L48.4109 7.07841C48.6076 7.28318 48.9128 7.33537 49.1497 7.21091C50.1253 6.70904 51.1652 6.27542 52.2213 5.93815C52.4662 5.85785 52.6428 5.60089 52.6428 5.31984V2.73022C52.6428 1.22865 53.8675 0.00810151 55.3651 0.00810151H61.8495C63.3512 0.00810151 64.5718 1.23266 64.5718 2.73022V5.31984C64.5718 5.60892 64.7484 5.85383 64.9933 5.93815C66.0533 6.2754 67.0812 6.70902 68.065 7.21091C68.3018 7.33537 68.599 7.27114 68.8037 7.07841L70.4379 5.44437C71.6705 4.21179 73.377 4.1275 74.4891 5.2396L79.0744 9.82466C80.1825 10.9328 80.1022 12.6392 78.8696 13.8758L77.2355 15.5098C77.0387 15.7066 76.9785 16.0037 77.103 16.2285C77.6049 17.2162 78.0385 18.2521 78.3758 19.312C78.4561 19.5569 78.705 19.7336 78.9941 19.7336H81.2948C83.0133 19.7336 84.278 20.8738 84.278 22.4596ZM6.45652 28.4821C6.54887 28.5744 6.6613 28.6588 6.7938 28.7069C6.91827 28.7471 7.05479 28.7792 7.18728 28.7792C7.31978 28.7792 7.4563 28.7471 7.57676 28.6989C7.70122 28.6467 7.81365 28.5745 7.91402 28.4741L14.0813 22.3071C14.4828 21.9056 14.4828 21.2592 14.0813 20.8576C13.6798 20.456 13.0334 20.4561 12.6318 20.8576L8.23122 25.258C8.46009 12.4265 18.9674 2.05567 31.8559 2.05567C32.4221 2.05567 32.8838 1.59394 32.8838 1.02783C32.8838 0.461723 32.4221 0 31.8559 0C17.8275 0 6.39544 11.3062 6.17136 25.2868L1.75067 20.8663C1.34915 20.4648 0.702753 20.4648 0.301162 20.8663C-0.100429 21.2677 -0.100346 21.9141 0.301162 22.3157L6.45652 28.4821ZM77.8137 55.7999C77.7214 55.7075 77.6089 55.6232 77.4764 55.575C77.2315 55.4706 76.9424 55.4706 76.6935 55.575C76.569 55.6272 76.4566 55.6995 76.3562 55.7999L70.189 61.9669C69.7874 62.3684 69.7874 63.0147 70.189 63.4163C70.5905 63.8179 71.2369 63.8178 71.6385 63.4163L76.039 59.016C75.8101 71.8557 65.3028 82.2265 52.4143 82.2265C51.8482 82.2265 51.3864 82.6882 51.3864 83.2543C51.3864 83.8204 51.8482 84.2822 52.4143 84.2822C66.4428 84.2822 77.8748 72.976 78.0989 58.9954L82.5196 63.4159C82.7243 63.6207 82.9813 63.7251 83.2503 63.7251C83.5193 63.7251 83.7763 63.6207 83.9811 63.428C84.3826 63.0265 84.3826 62.3801 83.9811 61.9785L77.8137 55.7999ZM25.6891 49.3357C30.7883 49.3357 34.94 53.4872 34.94 58.5862C34.94 63.6852 30.7883 67.8367 25.6891 67.8367C20.5899 67.8367 16.4382 63.6852 16.4382 58.5862C16.4382 53.4872 20.5899 49.3357 25.6891 49.3357ZM25.6891 51.3914C21.7221 51.3914 18.494 54.6194 18.494 58.5862C18.494 62.553 21.7221 65.7811 25.6891 65.7811C29.6561 65.7811 32.8842 62.553 32.8842 58.5862C32.8842 54.6194 29.6561 51.3914 25.6891 51.3914ZM58.5811 34.946C53.4819 34.946 49.3302 30.7945 49.3302 25.6955C49.3302 20.5966 53.4819 16.445 58.5811 16.445C63.6803 16.445 67.832 20.5966 67.832 25.6955C67.832 30.7945 63.6803 34.946 58.5811 34.946ZM58.5811 32.8904C62.5481 32.8904 65.7763 29.6624 65.7763 25.6955C65.7763 21.7287 62.5481 18.5007 58.5811 18.5007C54.6141 18.5007 51.386 21.7287 51.386 25.6955C51.386 29.6624 54.6141 32.8904 58.5811 32.8904Z" fill="#0755EB"/>
</svg>
