<svg width="86" height="86" viewBox="0 0 86 86" fill="none" xmlns="http://www.w3.org/2000/svg">
<path d="M47.8467 41.3806H6.46639C2.90225 41.3806 0 44.2829 0 47.847V73.7087C0 77.2728 2.90225 80.1751 6.46639 80.1751H25.8619V82.7609H23.2761C22.5597 82.7609 21.9814 83.3391 21.9814 84.0556C21.9814 84.772 22.5597 85.3503 23.2761 85.3503H31.0336C31.7501 85.3503 32.3283 84.772 32.3283 84.0556C32.3283 83.3391 31.7501 82.7609 31.0336 82.7609H28.4478V80.1751H47.8434C51.4075 80.1751 54.3097 77.2728 54.3097 73.7087V47.847C54.3097 44.2829 51.4075 41.3806 47.8434 41.3806H47.8467ZM51.7273 73.7093C51.7273 75.8478 49.9889 77.5899 47.8467 77.5899H6.46639C4.32787 77.5899 2.58579 75.8515 2.58579 73.7093V47.8477C2.58579 45.7092 4.32424 43.9671 6.46639 43.9671H47.8467C49.9852 43.9671 51.7273 45.7055 51.7273 47.8477V73.7093Z" fill="#0755EB"/>
<path d="M43.9701 47.8467H40.0895C39.373 47.8467 38.7948 48.425 38.7948 49.1414C38.7948 49.8579 39.373 50.4361 40.0895 50.4361H40.8459L28.4519 62.8302L24.1931 58.5714C23.6875 58.0659 22.8692 58.0659 22.3638 58.5714L9.4306 71.5046C8.92507 72.0101 8.92507 72.8284 9.4306 73.3339C9.68154 73.5848 10.0125 73.7121 10.3435 73.7121C10.6744 73.7121 11.0054 73.5848 11.2563 73.3339L23.2724 61.3178L27.5312 65.5766C28.0367 66.0821 28.855 66.0821 29.3605 65.5766L42.6717 52.2655V53.0219C42.6717 53.7384 43.2499 54.3166 43.9664 54.3166C44.6828 54.3166 45.2611 53.7384 45.2611 53.0219V49.1413C45.2611 48.4249 44.6828 47.8466 43.9664 47.8466L43.9701 47.8467Z" fill="#0755EB"/>
<path d="M10.3462 40.0895C11.0627 40.0895 11.6409 39.5113 11.6409 38.7948V12.9332H65.9507V20.1742C65.9507 20.8906 66.529 21.4689 67.2454 21.4689C67.9618 21.4689 68.5401 20.8906 68.5401 20.1742V6.46639C68.5401 2.90226 65.6379 0 62.0737 0L15.5177 0.00363734C11.9536 0.00363734 9.05133 2.90589 9.05133 6.47003V38.7987C9.05133 39.5152 9.6296 40.0934 10.346 40.0934L10.3462 40.0895ZM11.6409 6.46667C11.6409 4.32815 13.3794 2.58607 15.5215 2.58607H62.0738C64.2123 2.58607 65.9544 4.32452 65.9544 6.46667V10.3473H11.6409V6.46667Z" fill="#0755EB"/>
<path d="M56.8986 54.3127C56.1821 54.3127 55.6039 54.8909 55.6039 55.6074C55.6039 56.3238 56.1821 56.9021 56.8986 56.9021C63.3177 56.9021 68.5366 51.6831 68.5366 45.264C68.5366 38.8449 63.3177 33.626 56.8986 33.626C53.3272 33.626 49.9993 35.2371 47.7663 38.0448C47.3226 38.6012 47.4135 39.4159 47.9736 39.8632C48.5337 40.3069 49.3448 40.216 49.7921 39.6559C51.5305 37.4701 54.1236 36.2118 56.9022 36.2118C61.892 36.2118 65.9545 40.2742 65.9545 45.2641C65.9545 50.2539 61.892 54.3163 56.9022 54.3163L56.8986 54.3127Z" fill="#0755EB"/>
<path d="M81.7136 40.0899C81.2408 40.0899 80.8335 39.7699 80.7171 39.308C80.117 36.9258 79.186 34.6782 77.9458 32.6234C77.7057 32.2269 77.7712 31.6996 78.1021 31.3722C78.7786 30.6958 79.1641 29.7611 79.1641 28.801C79.1641 27.8445 78.7749 26.9098 78.1021 26.2333L75.9273 24.0585C74.5489 22.6801 72.1631 22.6801 70.7884 24.0585C70.4756 24.3713 69.8937 24.4295 69.5446 24.2185C68.9773 23.873 68.3953 23.553 67.8171 23.2693C66.2314 22.4837 64.562 21.8691 62.8491 21.4436C62.3909 21.3272 62.0708 20.9199 62.0708 20.4471C62.0708 18.4432 60.4415 16.8139 58.4376 16.8139H55.3571C53.3532 16.8139 51.7239 18.4432 51.7239 20.4471C51.7239 20.9199 51.4039 21.3273 50.942 21.4436C48.5598 22.0437 46.3122 22.9747 44.2574 24.215C43.8609 24.4514 43.3336 24.3896 43.0062 24.0586C41.6533 22.7057 39.2202 22.7057 37.8673 24.0586L35.6925 26.2334C34.2741 27.6518 34.2741 29.954 35.6925 31.3723C35.8743 31.5542 35.9871 31.8269 35.9871 32.0997C35.9871 32.2925 35.9398 32.4707 35.8489 32.6198C34.7578 34.4201 33.9068 36.3804 33.3213 38.4461C33.1249 39.1334 33.5249 39.8463 34.2123 40.0426C34.8888 40.2354 35.6125 39.839 35.8089 39.1516C36.3326 37.3077 37.0927 35.5619 38.0638 33.9618C38.3984 33.4126 38.5729 32.7689 38.5729 32.1033C38.5729 31.1432 38.1874 30.2122 37.5219 29.5466C37.1073 29.132 37.1073 28.481 37.5219 28.0664L39.6967 25.8916C40.0858 25.5024 40.7878 25.5024 41.1769 25.8916C42.3516 27.0662 44.1664 27.2917 45.5921 26.4334C47.4287 25.3242 49.4435 24.4914 51.5712 23.953C53.1823 23.5494 54.3097 22.1091 54.3097 20.4471C54.3097 19.8688 54.7789 19.3997 55.3572 19.3997H58.4376C59.0159 19.3997 59.485 19.8688 59.485 20.4471C59.485 22.1092 60.6124 23.5493 62.2236 23.953C63.7547 24.3386 65.2495 24.8877 66.6751 25.5933C67.1952 25.8479 67.7044 26.1279 68.2026 26.4298C69.5446 27.2444 71.494 27.0189 72.6214 25.8879C73.036 25.4733 73.687 25.4733 74.1016 25.8879L76.2765 28.0627C76.4692 28.2554 76.5819 28.5246 76.5819 28.801C76.5819 29.0774 76.4692 29.3465 76.2765 29.5429C75.1018 30.7176 74.8799 32.5324 75.7346 33.9581C76.8438 35.7948 77.6766 37.8096 78.215 39.9372C78.6186 41.5484 80.0589 42.6758 81.7209 42.6758C82.2992 42.6758 82.7683 43.1449 82.7683 43.7232V46.8037C82.7683 47.3819 82.2992 47.8511 81.7209 47.8511C80.0588 47.8511 78.6187 48.9785 78.215 50.586C77.6767 52.7173 76.8438 54.7321 75.7382 56.5651C75.4036 57.1143 75.229 57.758 75.229 58.4236C75.229 59.3837 75.6145 60.3147 76.2801 60.9803C76.6947 61.3949 76.6947 62.0459 76.2801 62.4605L74.1052 64.6353C73.7161 65.0245 73.0141 65.0245 72.6251 64.6353C71.4504 63.4606 69.6356 63.2388 68.2099 64.0934C66.3732 65.2027 64.3584 66.0355 62.2308 66.5738C60.6196 66.9775 59.4922 68.4178 59.4922 70.0798C59.4922 70.658 59.023 71.1272 58.4448 71.1272H56.9064C56.1899 71.1272 55.6117 71.7055 55.6117 72.4219C55.6117 73.1384 56.19 73.7166 56.9064 73.7166H58.4448C60.4487 73.7166 62.078 72.0873 62.078 70.0834C62.078 69.6106 62.398 69.2033 62.8599 69.0869C65.2421 68.4868 67.4897 67.5558 69.5446 66.3156C69.941 66.0755 70.4683 66.141 70.7957 66.4719C72.1486 67.8248 74.5817 67.8248 75.9346 66.4719L78.1094 64.2971C78.7968 63.6097 79.175 62.6968 79.175 61.7258C79.175 60.7584 78.7968 59.8456 78.1058 59.1546C77.924 58.9727 77.8112 58.7 77.8112 58.4272C77.8112 58.2344 77.8585 58.0562 77.9494 57.9071C79.1896 55.8487 80.1242 53.601 80.7208 51.2152C80.8371 50.757 81.2445 50.4369 81.7173 50.4369C83.7211 50.4369 85.3505 48.8076 85.3505 46.8037V43.7233C85.3505 41.7194 83.7211 40.09 81.7173 40.09L81.7136 40.0899Z" fill="#0755EB"/>
<path d="M20.6939 5.17524H19.3992C18.6827 5.17524 18.1045 5.7535 18.1045 6.46995C18.1045 7.1864 18.6828 7.76467 19.3992 7.76467H20.6939C21.4104 7.76467 21.9886 7.1864 21.9886 6.46995C21.9886 5.7535 21.4104 5.17524 20.6939 5.17524Z" fill="#0755EB"/>
<path d="M27.1563 5.17524H25.8616C25.1451 5.17524 24.5669 5.7535 24.5669 6.46995C24.5669 7.1864 25.1451 7.76467 25.8616 7.76467H27.1563C27.8728 7.76467 28.451 7.1864 28.451 6.46995C28.451 5.7535 27.8727 5.17524 27.1563 5.17524Z" fill="#0755EB"/>
<path d="M33.6223 5.17524H32.3276C31.6111 5.17524 31.0329 5.7535 31.0329 6.46995C31.0329 7.1864 31.6111 7.76467 32.3276 7.76467H33.6223C34.3388 7.76467 34.917 7.1864 34.917 6.46995C34.917 5.7535 34.3388 5.17524 33.6223 5.17524Z" fill="#0755EB"/>
<path d="M41.3799 18.1039C41.3799 17.3875 40.8016 16.8092 40.0852 16.8092H18.1041C17.3876 16.8092 16.8094 17.3875 16.8094 18.1039C16.8094 18.8204 17.3877 19.3987 18.1041 19.3987H40.0852C40.8016 19.3987 41.3799 18.8204 41.3799 18.1039Z" fill="#0755EB"/>
<path d="M33.6223 23.2792C33.6223 22.5627 33.044 21.9845 32.3276 21.9845H20.6895C19.973 21.9845 19.3948 22.5627 19.3948 23.2792C19.3948 23.9956 19.9731 24.5739 20.6895 24.5739H32.3276C33.044 24.5739 33.6223 23.9956 33.6223 23.2792Z" fill="#0755EB"/>
<path d="M29.7418 27.156H23.2754C22.5589 27.156 21.9807 27.7342 21.9807 28.4507C21.9807 29.1671 22.5589 29.7454 23.2754 29.7454H29.7418C30.4582 29.7454 31.0365 29.1671 31.0365 28.4507C31.0365 27.7342 30.4582 27.156 29.7418 27.156Z" fill="#0755EB"/>
<path d="M29.7418 32.3321H23.2754C22.5589 32.3321 21.9807 32.9104 21.9807 33.6269C21.9807 34.3433 22.5589 34.9216 23.2754 34.9216H29.7418C30.4582 34.9216 31.0365 34.3433 31.0365 33.6269C31.0365 32.9104 30.4582 32.3321 29.7418 32.3321Z" fill="#0755EB"/>
</svg>
